<?xml version="1.0" standalone="no"?>
<!DOCTYPE svg PUBLIC "-//W3C//DTD SVG 1.1//EN" "http://www.w3.org/Graphics/SVG/1.1/DTD/svg11.dtd" >
<svg xmlns="http://www.w3.org/2000/svg">
<metadata>Generated by IcoMoon</metadata>
<defs>
<font id="oeoes-font" horiz-adv-x="1024">
<font-face units-per-em="1024" ascent="960" descent="-64" />
<missing-glyph horiz-adv-x="1024" />
<glyph unicode="&#x20;" horiz-adv-x="512" d="" />
<glyph unicode="&#xe900;" glyph-name="sp-browse" d="M190.303 960h643.393c43.372 0 78.532-35.16 78.532-78.532v0c0-43.372-35.16-78.532-78.532-78.532h-643.393c-43.372 0-78.532 35.16-78.532 78.532v0c0 43.372 35.16 78.532 78.532 78.532zM1024 755.2l-196.445-819.2h-631.11l-196.445 819.2h1024zM513.6 73.6c149.338 0 270.4 121.062 270.4 270.4s-121.062 270.4-270.4 270.4c-149.338 0-270.4-121.062-270.4-270.4s121.062-270.4 270.4-270.4z" />
<glyph unicode="&#xe901;" glyph-name="sp-calendar" d="M137.6 960h96v-76.948h-96v76.948zM784 960h96v-76.948h-96v76.948zM0 883.052h1024v-947.052h-1024v947.052zM60.8 835.7v-68.069h899.2v68.069h-899.2zM960 717.318h-899.2v-725.087h899.2v725.087zM318.349 380.246h39.798c25.005 0.445 44.666 8.090 58.982 22.934 14.314 14.845 21.472 34.896 21.472 60.157 0 56.72-24.336 85.082-73.011 85.082-22.906 0-41.229-7.645-54.972-22.934-13.552-15.066-20.328-35.117-20.328-60.154h-52.968c0 38.33 12.025 70.125 36.076 95.386 24.242 25.478 54.973 38.221 92.193 38.221 39.322 0 70.147-12.077 92.48-36.227s33.501-57.718 33.501-100.704c0-21.050-5.917-41.434-17.754-61.152-11.642-19.722-27.581-34.454-47.814-44.205 22.906-8.419 40.563-22.378 52.97-41.875 12.598-19.498 18.896-43.318 18.896-71.456 0-43.427-12.214-77.882-36.646-103.363-24.435-25.482-56.214-38.221-95.344-38.221s-71.007 12.298-95.63 36.893c-24.432 24.592-36.648 57.053-36.648 97.379h53.255c0-25.482 7.158-45.866 21.474-61.155 14.315-15.286 33.499-22.931 57.55-22.931 25.578 0 45.142 7.754 58.694 23.264s20.33 37.779 20.33 66.803c0 28.141-7.446 49.744-22.333 64.81-14.89 15.066-36.365 22.822-64.422 23.264h-39.798v50.186zM832 314.774c0-72.010-10.595-125.52-31.782-160.528s-54.304-52.512-99.35-52.512c-44.474 0-77.402 17.062-98.778 51.184-21.379 34.342-32.451 85.523-33.213 153.546v82.093c0 71.123 10.592 123.968 31.779 158.531 21.187 34.566 54.4 51.85 99.638 51.85 44.858 0 77.878-16.73 99.066-50.186 21.187-33.235 32.067-84.64 32.64-154.214v-79.763zM779.030 398.861c0 52.067-6.298 89.955-18.896 113.664-12.598 23.93-32.544 35.894-59.84 35.894-27.104 0-46.861-11.853-59.267-35.562s-18.8-60.157-19.184-109.344v-98.378c0-52.291 6.49-90.954 19.472-115.994 13.168-24.816 33.021-37.222 59.552-37.222 26.15 0 45.523 11.744 58.122 35.229 12.79 23.488 19.469 60.49 20.042 111.008v100.704z" />
<glyph unicode="&#xe902;" glyph-name="sp-check" horiz-adv-x="1365" d="M0 391.194l115.034 115.034 454.323-454.323-115.034-115.034-454.323 454.323zM456.367-63.679l-115.034 115.034 908.646 908.646 115.034-115.034-908.646-908.646z" />
<glyph unicode="&#xe903;" glyph-name="sp-clock" d="M512-64c-282.77 0-512 229.229-512 512s229.23 512 512 512 512-229.23 512-512c0-282.771-229.229-512-512-512zM512 0c247.424 0 448 200.576 448 448s-200.576 448-448 448c-247.423 0-448-200.577-448-448s200.577-448 448-448zM476.8 825.6h70.4v-384h-70.4v384zM476.8 416.003l0.741 70.396 383.979-4.043-0.741-70.396-383.979 4.043z" />
<glyph unicode="&#xe904;" glyph-name="sp-cross" d="M0 844.967l115.034 115.034 908.646-908.646-115.034-115.034-908.646 908.646zM115.033-63.679l-115.034 115.034 908.646 908.646 115.034-115.034-908.646-908.646z" />
<glyph unicode="&#xe905;" glyph-name="sp-down" horiz-adv-x="1730" d="M864.827 249.56l-710.444 710.441-154.387-154.387 864.831-864.833v308.779zM862.31 249.56l710.44 710.441 154.392-154.387-864.833-864.833v308.779z" />
<glyph unicode="&#xe906;" glyph-name="sp-ellipsis-h" d="M243.2 448c0-61.856-50.144-112-112-112s-112 50.144-112 112c0 61.856 50.144 112 112 112s112-50.144 112-112zM633.6 448c0-61.856-50.144-112-112-112s-112 50.144-112 112c0 61.856 50.144 112 112 112s112-50.144 112-112zM1024 448c0-61.856-50.144-112-112-112s-112 50.144-112 112c0 61.856 50.144 112 112 112s112-50.144 112-112z" />
<glyph unicode="&#xe907;" glyph-name="sp-home" horiz-adv-x="1011" d="M523.716 960l-523.716-293.907v-729.48h384.711v299.634h241.936v-299.634h384.711v735.206l-1.817-2.129-485.825 290.309z" />
<glyph unicode="&#xe908;" glyph-name="sp-left" horiz-adv-x="606" d="M182.764 449.595l420.513-420.51-91.382-91.382-511.895 511.892h182.764zM182.764 448.105l420.513 420.513-91.382 91.382-511.895-511.895h182.764z" />
<glyph unicode="&#xe909;" glyph-name="sp-loop" horiz-adv-x="1237" d="M1236.528 728.151l-315.261-200.789v401.576l315.261-200.787zM29.94 399.698c0 0-65.665 363.236 345.132 363.23 162.072-0.002 547.192 0 547.192 0v-68.22c0 0-462.129 0-547.192 0-362.812 0-276.991-295.010-276.991-295.010h-68.141zM0 167.849l315.262 200.789v-401.578l-315.262 200.789zM1206.589 496.302c0 0 65.664-363.234-345.134-363.23-162.070 0.004-547.192 0-547.192 0v68.222c0 0 462.13 0 547.192 0 362.813 0 276.994 295.009 276.994 295.009h68.14z" />
<glyph unicode="&#xe90a;" glyph-name="sp-love-fill" d="M50.563 808.704c239.895 246.781 460.553-30.167 460.553-30.167s211.479 274.156 447.974 46.793c308.547-376.599-449.855-844.858-449.855-844.858s-727.078 451.799-458.679 828.234z" />
<glyph unicode="&#xe90b;" glyph-name="sp-love" horiz-adv-x="1141" d="M568.105 810.344c0 0 231.029 299.501 489.39 51.118 337.072-411.414-491.445-922.967-491.445-922.967s-794.297 493.571-501.076 904.807c262.076 269.595 503.131-32.957 503.131-32.957zM566.927 753.713c0 0-232.187 286.239-461.501 50.344-256.568-359.833 459.822-807.135 459.822-807.135s749.868 460.19 454.93 820.179c-226.066 217.335-453.25-63.388-453.25-63.388z" />
<glyph unicode="&#xe90c;" glyph-name="sp-mic" horiz-adv-x="829" d="M479.812 267.647c-191.189 0-346.178 154.986-346.178 346.175s154.989 346.178 346.178 346.178c191.189 0 346.175-154.989 346.175-346.178s-154.986-346.175-346.175-346.175zM479.812 310.916c167.29 0 302.906 135.615 302.906 302.906s-135.615 302.906-302.906 302.906c-167.29 0-302.905-135.615-302.905-302.906s135.615-302.906 302.905-302.906zM396.099 288.729l-329.442-352.729-66.657 44.334 203.336 436.599 192.763-128.205zM348.765 291.7l-126.486 84.126-180.727-357.606 43.738-29.091 263.474 302.572z" />
<glyph unicode="&#xe90d;" glyph-name="sp-next" d="M892.227 458.931l-446.448-500.314-2.349 488.675 3.018 512.707 445.779-501.068zM892.966 938.213h131.033v-1002.214h-131.033v1002.214z" />
<glyph unicode="&#xe90e;" glyph-name="sp-play-circle" d="M512-64c-282.77 0-512 229.229-512 512s229.23 512 512 512c282.771 0 512-229.23 512-512s-229.229-512-512-512zM512.803-17.382c257.469 0 466.186 208.72 466.186 466.186 0 257.468-208.717 466.186-466.186 466.186-257.467 0-466.185-208.718-466.185-466.186 0-257.466 208.718-466.186 466.185-466.186zM772.445 449.158l-403.514-287.331v589.967l403.514-302.636z" />
<glyph unicode="&#xe90f;" glyph-name="sp-play" horiz-adv-x="1028" d="M1025.408 447.501l-595.863-427.442 4.747 438.135 4.621 426.36 586.495-437.052z" />
<glyph unicode="&#xe910;" glyph-name="sp-plus-circle" d="M489.6 816h64v-697.6h-64v697.6zM859.2 488v-64h-697.6v64h697.6zM512-64c-282.77 0-512 229.229-512 512s229.23 512 512 512 512-229.23 512-512c0-282.771-229.229-512-512-512zM512 0c247.424 0 448 200.576 448 448s-200.576 448-448 448c-247.423 0-448-200.577-448-448s200.577-448 448-448z" />
<glyph unicode="&#xe911;" glyph-name="sp-plus" d="M450.787 901.488l114.91 0.923 7.287-907.672-114.91-0.923-7.287 907.672zM58.512 387.014l-0.923 114.91 907.672 7.287 0.923-114.91-907.672-7.287z" />
<glyph unicode="&#xe912;" glyph-name="sp-previous" d="M131.772 458.931l446.449-500.314 2.349 488.675-3.018 512.707-445.78-501.068zM131.033 938.213h-131.033v-1002.214h131.033v1002.214z" />
<glyph unicode="&#xe913;" glyph-name="sp-queue" horiz-adv-x="1637" d="M405.074 724.265l-203.23-219.234-0.539 222.074 1.924 232.895 201.845-235.735zM203.229 47.79h1430.917v-111.79h-1430.917v111.79zM203.229 378.69h1430.917v-111.79h-1430.917v111.79zM578.846 781.135h1055.301v-111.79h-1055.301v111.79z" />
<glyph unicode="&#xe914;" glyph-name="sp-radio" horiz-adv-x="1246" d="M824.885 448.565c0-112.581-89.653-203.846-200.245-203.846s-200.245 91.265-200.245 203.846c0 112.581 89.653 203.846 200.245 203.846s200.245-91.265 200.245-203.846zM0 448.759c0 209.537 99.83 395.339 253.715 510.806l22.608-60.901c-130.402-105.382-214.026-268.156-214.026-450.813 0-183.615 84.504-347.136 216.082-452.464l-22.046-59.388c-155.369 115.319-256.333 302.037-256.333 512.759zM993.218-61.294c153.316 115.521 252.714 300.97 252.714 510.053 0 209.8-100.079 395.805-254.295 511.241l-20.215-55.7c134.452-105.163 221.114-270.503 221.114-456.448 0-184.986-85.771-349.577-219.039-454.812l19.721-54.334zM192.23 448.759c0 123.654 51.658 235.203 134.504 314.109l21.997-59.255c-61.779-66.903-99.544-156.453-99.544-254.854 0-99.663 38.74-190.25 101.934-257.417l-21.913-59.030c-84.29 79.031-136.978 191.566-136.978 316.447zM921.81 135.446c82.36 78.86 133.673 190.075 133.673 313.313 0 123.983-51.936 235.796-135.168 314.738l-22.123-60.96c61.191-66.785 98.553-155.903 98.553-253.778 0-97.105-36.774-185.589-97.116-252.2l22.181-61.113z" />
<glyph unicode="&#xe915;" glyph-name="sp-right" horiz-adv-x="606" d="M420.513 449.595l-420.512-420.51 91.382-91.382 511.894 511.892h-182.763zM420.513 448.105l-420.512 420.513 91.382 91.382 511.894-511.895h-182.763z" />
<glyph unicode="&#xe916;" glyph-name="sp-search" d="M438.182 88.138c-242.002 0-438.182 195.171-438.182 435.93s196.18 435.933 438.182 435.933c242 0 438.179-195.173 438.179-435.933s-196.179-435.93-438.179-435.93zM438.182 142.627c211.75 0 383.408 170.778 383.408 381.44 0 210.665-171.658 381.441-383.408 381.441-211.752 0-383.41-170.777-383.41-381.441 0-210.662 171.658-381.44 383.41-381.44zM731.216 206.87l46.733 42.016 246.054-270.871-46.733-42.016-246.054 270.871z" />
<glyph unicode="&#xe917;" glyph-name="sp-shuffle" horiz-adv-x="1240" d="M1238.836 710.244l-339.61-216.297v432.592l339.61-216.295zM0.002 281.496c0 0 276.257-104.065 411.541 189.398s488.761 276.813 488.761 276.813v-73.489c0 0-301.443 31.863-438.805-253.275-137.358-285.138-461.499-228.943-461.499-228.943l0.002 89.496zM1240.368 187.509l-339.614 216.293v-432.59l339.614 216.297zM1.53 616.256c0 0 276.257 104.065 411.541-189.398s488.76-276.813 488.76-276.813v73.491c0 0-301.443-31.865-438.805 253.273-137.358 285.138-461.499 228.943-461.499 228.943l0.002-89.496z" />
<glyph unicode="&#xe918;" glyph-name="sp-speaker" horiz-adv-x="1100" d="M161.503 582.013l409.655 324.023v-936.694l-409.655 253.584-161.503 32.108v276.325l161.503 50.654zM196.153 537.098l-113.683-35.493v-193.615l113.683-22.497 288.357-177.681v656.322l-288.357-227.036zM1099.597 447.406c0-209.638-85.415-395.577-217.164-511.406l-20.882 67.127c106.926 105.805 174.98 265.147 174.98 443.368 0 179.197-68.8 339.307-176.736 445.1l21.277 68.405c132.522-115.741 218.524-302.239 218.524-512.594zM136.749 440.53c0-0.12 0-0.241 0-0.364 0-0.12 0-0.244 0-0.364v0.728zM824.942 440.165c0-152.456-54.904-287.682-139.587-371.918l-18.446 67.093c60.492 76.504 98.266 185.090 98.266 305.533 0 120.798-37.998 229.669-98.802 306.21l18.109 65.867c85.181-84.172 140.46-219.803 140.46-372.784z" />
<glyph unicode="&#xe919;" glyph-name="sp-up" horiz-adv-x="1730" d="M862.316 651.226l710.44-710.445 154.392 154.387-864.833 864.833v-308.774zM864.833 651.226l-710.444-710.445-154.387 154.387 864.831 864.833v-308.774z" />
<glyph unicode="&#xe91a;" glyph-name="sp-pause-circle" d="M512-64c-282.77 0-512 229.229-512 512s229.23 512 512 512c282.771 0 512-229.23 512-512s-229.229-512-512-512zM512.803-17.382c257.469 0 466.186 208.72 466.186 466.186 0 257.468-208.717 466.186-466.186 466.186-257.467 0-466.185-208.718-466.185-466.186 0-257.466 208.718-466.186 466.185-466.186zM342.4 688h112v-480h-112v480zM566.4 688h112v-480h-112v480z" />
<glyph unicode="&#xe91b;" glyph-name="sp-pause" horiz-adv-x="717" d="M0 960h238.933v-1024h-238.933v1024zM477.867 960h238.933v-1024h-238.933v1024z" />
<glyph unicode="&#xe91c;" glyph-name="sp-speaker-mute" horiz-adv-x="1071" d="M157.281 591.895l398.945 315.552v-912.206l-398.945 246.955-157.281 31.269v269.101l157.281 49.329zM191.025 548.155l-110.711-34.565v-188.553l110.711-21.909 280.819-173.036v639.163l-280.819-221.1zM1070.85 460.807c0-204.157-83.182-385.235-211.486-498.035l-20.336 65.372c104.13 103.039 170.406 258.215 170.406 431.777 0 174.512-67.002 330.436-172.116 433.464l20.721 66.617c129.057-112.715 212.811-294.338 212.811-499.193zM133.174 454.111c0-0.117 0-0.234 0-0.355 0-0.117 0-0.238 0-0.355v0.709zM803.375 453.756c0-148.47-53.469-280.161-135.938-362.195l-17.964 65.339c58.91 74.504 95.697 180.251 95.697 297.546 0 117.64-37.005 223.665-96.219 298.204l17.636 64.145c82.954-81.972 136.788-214.056 136.788-363.038zM63.582 882.893l54.424 54.424 946.506-946.506-54.424-54.424-946.506 946.506z" />
<glyph unicode="&#xe91d;" glyph-name="sp-camera" horiz-adv-x="1510" d="M75.571 708.633l196.129 39.885c28.106 5.716 52.083 23.9 65.171 49.42l56.797 110.752c16.152 31.5 48.576 51.311 83.978 51.311h546.736c30.81 0 59.685-15.041 77.343-40.291l92.231-131.887c13.6-19.456 34.037-33.069 57.24-38.127l184.575-40.238c43.357-9.451 74.275-47.835 74.275-92.212v-586.866c0-52.125-42.253-94.378-94.378-94.378h-1321.29c-52.124 0-94.378 42.253-94.378 94.378v585.77c0 44.873 31.594 83.543 75.571 92.485zM175.608 659.118c-44.415-8.563-76.512-47.437-76.512-92.672v-455.847c0-52.125 42.253-94.378 94.378-94.378h1132.535c52.125 0 94.378 42.253 94.378 94.378v456.9c0 44.762-31.442 83.366-75.276 92.425l-147.399 30.46c-22.788 4.71-43.032 17.673-56.844 36.4l-74.124 100.485c-17.79 24.118-45.981 38.352-75.951 38.352h-467.963c-34.656 0-66.521-18.992-83.014-49.472l-42.811-79.143c-13.461-24.88-37.369-42.412-65.143-47.767l-156.253-30.122zM755.023 153.069c-130.308 0-235.945 105.637-235.945 235.945s105.637 235.945 235.945 235.945 235.945-105.636 235.945-235.945c0-130.308-105.637-235.945-235.945-235.945zM752.664 214.415c95.123 0 172.24 77.116 172.24 172.24s-77.116 172.24-172.24 172.24c-95.123 0-172.24-77.116-172.24-172.24s77.116-172.24 172.24-172.24zM1184.442 580.129c0-32.577-26.409-58.986-58.986-58.986s-58.986 26.409-58.986 58.986c0 32.577 26.409 58.986 58.986 58.986s58.986-26.409 58.986-58.986zM193.475 832.59h70.783c13.031 0 23.594-10.564 23.594-23.594v-61.346c0-13.031-10.564-23.594-23.594-23.594h-70.783c-13.031 0-23.594 10.564-23.594 23.594v61.346c0 13.031 10.564 23.594 23.594 23.594z" />
<glyph unicode="&#xe91e;" glyph-name="sp-delete" horiz-adv-x="743" d="M31.9 866.185h679.477c17.618 0 31.9-14.282 31.9-31.9v-2.005c0-17.618-14.282-31.9-31.9-31.9h-679.477c-17.618 0-31.9 14.282-31.9 31.9v2.005c0 17.618 14.282 31.9 31.9 31.9zM208.094 958.405h328.795c15.644 0 28.981-11.347 31.486-26.792l10.616-65.428h-414.704l12.457 66.217c2.837 15.079 16.007 26.002 31.35 26.002zM254.168 911.376c-17.618 0-31.9-14.282-31.9-31.9v-7.265h298.744v7.265c0 17.618-14.282 31.9-31.9 31.9h-234.943zM743.277 768.695h-743.277v-58.605c0-8.982 3.158-17.678 8.922-24.566l21.315-25.472c5.2-6.215 8.294-13.92 8.836-22.006l44.57-664.732c1.348-20.104 18.047-35.719 38.195-35.719h501.992c20.148 0 36.845 15.615 38.194 35.719l44.638 665.74c0.498 7.459 3.174 14.61 7.691 20.568l20.161 26.587c4.919 6.483 7.64 14.364 7.774 22.5l0.989 59.987zM223.096 600.525c-17.618 0-31.9-14.282-31.9-31.9v-457.769c0-17.619 14.282-31.9 31.9-31.9h0.728c17.618 0 31.9 14.282 31.9 31.9v457.769c0 17.619-14.282 31.9-31.9 31.9h-0.728zM344.153 568.625c0 17.619 14.282 31.9 31.9 31.9h0.727c17.619 0 31.9-14.282 31.9-31.9v-457.769c0-17.619-14.282-31.9-31.9-31.9h-0.727c-17.619 0-31.9 14.282-31.9 31.9v457.769zM529.012 600.525c-17.619 0-31.9-14.282-31.9-31.9v-457.769c0-17.619 14.282-31.9 31.9-31.9h0.727c17.619 0 31.9 14.282 31.9 31.9v457.769c0 17.619-14.282 31.9-31.9 31.9h-0.727z" />
<glyph unicode="&#xe91f;" glyph-name="sp-edit" d="M722.118 809.92l105.555 104.955c25.066 24.922 65.706 24.922 90.771 0l60.17-59.829c25.066-24.922 25.066-65.328 0-90.25l-105.555-104.955-150.941 150.080zM159.203 242.954l523.258 520.274 150.941-150.080-523.258-520.274-150.941 150.080zM125.441 212.922l159.276-151.859-217.269-59.84 57.993 211.699z" />
<glyph unicode="&#xe920;" glyph-name="sp-music" horiz-adv-x="766" d="M700.317 956.304c15.571 8.241 34.762 2.238 42.861-13.408l15.392-29.734c3.129-6.045 4.147-12.646 3.318-18.945 0.689-2.608 1.056-5.345 1.056-8.169v-560.75c0-1.333-0.083-2.651-0.242-3.943 0.16-2.31 0.239-4.638 0.239-6.983 0-59.204-51.596-107.198-115.246-107.198s-115.249 47.994-115.249 107.198c0 59.204 51.599 107.198 115.249 107.198 6.275 0 12.435-0.466 18.442-1.362v407.946l-410.647-217.313v-530.598c0-2.156-0.145-4.278-0.426-6.358 0.521-4.441 0.788-8.954 0.788-13.526 0-66.927-57.274-121.183-127.925-121.183s-127.926 54.256-127.926 121.183c0 66.924 57.274 121.18 127.926 121.18 10.732 0 21.156-1.25 31.117-3.611v452.136c0 11.748 4.306 22.506 11.412 30.833 1.427 9.843 7.366 18.901 16.788 23.888l513.076 271.519z" />
</font>
</defs>
</svg>
